<?xml version="1.0" encoding="UTF-8"?>
<svg class="svg-logo" id="Layer_1" data-name="Layer 1" width="6rem" height="3.75rem"
    xmlns="http://www.w3.org/2000/svg"
    viewBox="0 0 200 60">
    <defs>
        <style>
            .cls-1 {
            fill: #00bf8c;
            stroke: #000;
            stroke-miterlimit: 10;
            stroke-width: .15px;
            }

            .cls-2 {
            fill: #007d94;
            }

            .cls-2,
            .cls-3 {
            stroke-width: 0px;
            }
        </style>
    </defs>
    <g>
        <g>
            <circle class="cls-2" cx="40" cy="40" r="39.92" />
            <path class="cls-3"
                d="m40,.15c21.97,0,39.85,17.88,39.85,39.85s-17.88,39.85-39.85,39.85S.15,61.97.15,40,18.03.15,40,.15m0-.15C17.91,0,0,17.91,0,40s17.91,40,40,40,40-17.91,40-40S62.09,0,40,0h0Z" />
        </g>
        <path class="cls-1"
            d="m36.43.38s8.67,3.8,5.17,8.06-4.87,5.17-3.5,6.08,1.83,5.32,3.19,6.39,1.37-1.83,5.17-1.06,8.67-.61,9.73-2.59-.46-6.08,1.98-6.39,3.5-4.41,3.5-4.41c0,0-10.65-7.45-25.25-6.08Z" />
        <path class="cls-1"
            d="m5.25,20.61s8.67-.46,8.67,2.28-1.67,4.87,1.22,6.69,5.48,6.39,4.11,8.82-.31,4.58.38,8.45,1.45,5.85-3.27,3.72-8.82-6.54-8.37-2.28.3,8.37-1.98,7.3-3.04-.91-3.04-.91c0,0-7.6-16.27,2.28-34.07Z" />
        <path class="cls-1"
            d="m35.36,79.47s-12.17-30.87,2.43-25.1,13.88-7.6,15.84-14.07,7.89-8.75,12.3-4.03,9.26,11.38,12.62,7.6c1.11-1.24,1.67.61-.46,7.91-1,3.43-3.06,7.63-5.93,11.71-3.55,5.03-8.61,9.02-14.91,12.27-5.63,2.9-12.71,4.49-21.9,3.7Z" />
    </g>
    <g>
        <path class="cls-3"
            d="m30.73,65.33c-.53.55-1.21.82-2.05.82h-14.11c-.84,0-1.53-.27-2.08-.82-.55-.55-.82-1.24-.82-2.08V16.82h8.5v40c0,.34.14.65.41.94.27.29.6.44.98.44h.06c.42,0,.76-.14,1.01-.41.25-.27.38-.6.38-.98V16.82h8.5v46.43c0,.84-.26,1.53-.79,2.08Zm11.34,0c-.53.55-1.21.82-2.05.82h-14.11c-.84,0-1.53-.27-2.08-.82-.55-.55-.82-1.24-.82-2.08V16.82h8.5v40c0,.34.14.65.41.94.27.29.6.44.98.44h.06c.42,0,.76-.14,1.01-.41.25-.27.38-.6.38-.98V16.82h8.5v46.43c0,.84-.26,1.53-.79,2.08Z" />
        <path class="cls-3"
            d="m46.82,51.12c-.55-.57-.82-1.25-.82-2.05V16.82h8.5v29.17c0,.42.13.77.38,1.04.25.27.59.41,1.01.41h.13c.38,0,.69-.15.94-.44.25-.29.38-.63.38-1.01v-29.17h8.5v32.25c0,.8-.28,1.48-.85,2.05s-1.25.85-2.05.85h-14.11c-.8,0-1.47-.28-2.02-.85Zm-.03.57c.52-.57,1.21-.85,2.05-.85h14.11c.84,0,1.53.28,2.08.85.55.57.82,1.27.82,2.11v12.35h-8.5v-9.39c0-.38-.13-.7-.38-.98-.25-.27-.57-.41-.94-.41h-.06c-.46,0-.82.14-1.07.41-.25.27-.38.6-.38.98v9.39h-8.5v-12.35c0-.84.26-1.54.79-2.11Z" />
        <path class="cls-3"
            d="m69.78,17.64c.52-.55,1.21-.82,2.05-.82h14.11c.84,0,1.53.27,2.08.82.55.55.82,1.24.82,2.08v26.58h-8.5v-20.16c0-.34-.14-.65-.41-.94-.27-.29-.6-.44-.98-.44h-.06c-.42,0-.76.14-1.01.41-.25.27-.38.6-.38.98v20.16h-8.5v-26.58c0-.84.26-1.53.79-2.08Zm-.79-.82h8.5v49.32h-8.5V16.82Zm0,26.08h8.5v3.09c0,.46.13.82.38,1.07s.57.38.94.38h.25c.34,0,.63-.15.88-.44.25-.29.38-.61.38-.94v-3.15h8.5v9.57c0,.8-.28,1.48-.85,2.05s-1.25.85-2.05.85h-7.06c-.42,0-.76.13-1.01.38-.25.25-.38.59-.38,1.01h-8.5v-13.86Z" />
        <path class="cls-3"
            d="m92.81,65.29c-.55-.57-.82-1.25-.82-2.05V16.82h8.5v39.94c0,.42.13.77.38,1.04.25.27.59.41,1.01.41h4.28v7.94h-11.34c-.8,0-1.47-.28-2.02-.85Z" />
        <path class="cls-3"
            d="m109.5,65.29c-.55-.57-.82-1.25-.82-2.05V19.72c0-.84.26-1.53.79-2.08.52-.55,1.21-.82,2.05-.82h14.11c.84,0,1.53.27,2.08.82.55.55.82,1.24.82,2.08v43.53c0,.8-.28,1.48-.85,2.05-.57.57-1.25.85-2.05.85h-14.11c-.8,0-1.47-.28-2.02-.85Zm10.11-7.5c.27-.27.41-.62.41-1.04v-30.61c0-.38-.13-.7-.38-.98-.25-.27-.57-.41-.94-.41h-.06c-.46,0-.82.14-1.07.41-.25.27-.38.6-.38.98v30.61c0,.38.13.71.38,1.01.25.29.55.44.88.44h.13c.42,0,.77-.14,1.04-.41Z" />
        <path class="cls-3"
            d="m132.49,17.67c.55-.57,1.22-.85,2.02-.85h14.11c.8,0,1.48.28,2.05.85s.85,1.25.85,2.05v24.88h-8.5v-18.52c0-.42-.14-.75-.41-.98-.27-.23-.62-.35-1.04-.35h-.19c-.29,0-.57.15-.82.44-.25.29-.38.61-.38.94v21.86h-8.5v-28.28c0-.8.27-1.48.82-2.05Zm-.82,4.06h8.5v44.41h-8.5V21.73Z" />
        <path class="cls-3"
            d="m155.45,17.64c.52-.55,1.21-.82,2.05-.82h14.11c.84,0,1.53.27,2.08.82.55.55.82,1.24.82,2.08v32.76c0,.8-.28,1.48-.85,2.05s-1.25.85-2.05.85h-7.06c-.42,0-.76.13-1.01.38-.25.25-.38.59-.38,1.01h-8.5V19.72c0-.84.26-1.53.79-2.08Zm.03,47.65c-.55-.57-.82-1.25-.82-2.05v-8.19h8.5v1.7c0,.42.13.77.38,1.04.25.27.61.41,1.07.41h9.89v7.94h-17.01c-.8,0-1.47-.28-2.02-.85Zm10.14-18.3c.25-.29.38-.61.38-.94v-19.91c0-.34-.14-.65-.41-.94-.27-.29-.6-.44-.98-.44h-.06c-.42,0-.76.14-1.01.41-.25.27-.38.6-.38.98v19.84c0,.46.13.82.38,1.07.25.25.57.38.94.38h.25c.34,0,.63-.15.88-.44Z" />
        <path class="cls-3"
            d="m178.47,17.67c.55-.57,1.22-.85,2.02-.85h14.11c.8,0,1.48.28,2.05.85s.85,1.25.85,2.05v24.88h-8.5v-18.52c0-.42-.14-.75-.41-.98-.27-.23-.62-.35-1.04-.35h-.19c-.29,0-.57.15-.82.44-.25.29-.38.61-.38.94v21.86h-8.5v-28.28c0-.8.27-1.48.82-2.05Zm-.82,4.06h8.5v44.41h-8.5V21.73Z" />
    </g>
</svg>